# Alias OBJ Model File
# Exported from SketchUp, (c) 2000-2006 Google, Inc.
# File units = meters

mtllib lightpost.mtl

g Mesh1 Model

usemtl _auto_56
v 0.0439523 -0.135948 29.673
vt 0.101563 0.179687
vn -8.74109e-008 1 -1.62923e-007
v 0.421947 -0.135948 29.106
vt 0.0664063 0.128906
v -0.523051 -0.135948 29.106
vt 0.137695 0.128906
f 1/1/1 2/2/1 3/3/1

vt 0.0664063 0.128906
vn -8.74109e-008 1 -1.62924e-007
v -0.71205 -0.135948 28.35
vt 0.160156 0.0605469
vt 0.137695 0.128906
f 2/4/2 4/5/2 3/6/2

vt 0.0664063 0.128906
vn -8.74182e-008 1 -1.62913e-007
v 0.610956 -0.135948 28.35
vt 0.0439453 0.0605469
vt 0.160156 0.0605469
f 2/7/3 5/8/3 4/9/3

vt 0.0664063 0.128906
vn -8.74326e-008 1 -1.62916e-007
v 0.98895 -0.135948 28.917
vt 0.00488275 0.111328
vt 0.0439453 0.0605469
f 2/10/4 6/11/4 5/12/4

vt 0.0439453 0.0605469
vn -8.74182e-008 1 -1.62919e-007
v 0.0439523 -0.135948 27.972
vt 0.101562 0.0195312
vt 0.160156 0.0605469
f 5/13/5 7/14/5 4/15/5

vt 0.0439453 0.0605469
vn -8.74185e-008 1 -1.62918e-007
v 0.610956 -0.135948 27.594
vt 0.0419922 -1.66089e-013
vt 0.101563 0.0195312
f 5/16/6 8/17/6 7/18/6

v -0.334044 -0.135948 27.783
vt 0.131836 0.00976564
vn -8.7421e-008 1 -1.62928e-007
vt 0.160156 0.0605469
vt 0.101562 0.0195312
f 9/19/7 4/20/7 7/21/7

v -0.71205 -0.135948 27.594
vt 0.162109 -2.58467e-010
f 4/20/7 9/19/7 10/22/7

vt 0.137695 0.128906
vn -8.74279e-008 1 -1.62919e-007
vt 0.160156 0.0605469
v -1.09005 -0.135948 28.917
vt 0.199219 0.111328
f 3/23/8 4/24/8 11/25/8

g Mesh2 Model

v -1.65705 -1.64795 27.027
vt 0.404297 1.00001
vn -1 -8.74219e-008 1.42443e-014
v -1.65705 1.56505 26.649
vt 0.0937505 0.867199
v -1.65705 -1.64795 26.649
vt 0.430664 0.8672
f 12/26/9 13/27/9 14/28/9

v -1.65705 1.56505 27.027
vt 0.0673833 1.00001
f 13/27/9 12/26/9 15/29/9

vt 0.530295 0.0195408
vn -0.496138 1.10554e-007 0.868244
v -0.334044 0.242052 27.783
vt 0.251975 0.169932
vt 0.140647 0.0195407
f 12/30/10 16/31/10 15/32/10

vt 0.297815 0.169932
f 16/31/10 12/30/10 9/33/10

v -0.334044 -0.324948 27.783
vt 0.320736 0.169932
f 17/34/10 9/33/10 12/30/10

v 1.55595 -1.64795 27.027
vt 0.140625 0.0195312
vn 4.33735e-008 -0.496139 0.868243
vt 0.418945 0.169922
vt 0.530273 0.0195312
f 18/35/11 17/36/11 12/37/11

vt 0.140625 0.0195312
vn 4.33683e-008 -0.496139 0.868243
v 0.232949 -0.324948 27.783
vt 0.251953 0.169922
vt 0.418945 0.169922
f 18/38/12 19/39/12 17/40/12

v 1.55595 1.56505 27.027
vt 0.53028 0.0195427
vn 0.496137 1.84828e-007 0.868244
vt 0.251959 0.169934
vt 0.140632 0.0195428
f 20/41/13 19/42/13 18/43/13

v 0.232948 0.242052 27.783
vt 0.32072 0.169934
f 19/42/13 20/41/13 21/44/13

vt 0.140625 0.0195313
vn -4.33735e-008 0.496139 0.868243
vt 0.320714 0.169922
vt 0.251953 0.169922
f 20/45/14 16/46/14 21/47/14

vt 0.530273 0.0195313
f 16/46/14 20/45/14 15/48/14

v 1.55595 1.56505 26.649
vt 0.09375 0.867188
vn -8.74232e-008 1 -1.62928e-007
vt 0.404297 1
vt 0.0673828 1
f 22/49/15 15/50/15 20/51/15

vt 0.430664 0.867188
f 15/50/15 22/49/15 13/52/15

usemtl _auto_55
v 1.55595 1.56505 26.46
vt -61.258 1041.73
vn -8.74222e-008 1 -1.62929e-007
vt 65.2382 1049.17
vt -61.258 1049.17
f 23/53/16 13/54/16 22/55/16

v -1.65705 1.56505 26.46
vt 65.2382 1041.73
f 13/54/16 23/53/16 24/56/16

usemtl _auto_56
vt 0.0673828 1
vn 1.42426e-014 -1.62921e-007 -1
v -1.65705 -1.64795 26.46
vt 0.430664 0.867188
vt 0.457031 1
f 23/57/17 25/58/17 24/59/17

v 1.55595 -1.64795 26.46
vt 0.09375 0.867188
vn 1.42428e-014 -1.62921e-007 -1
vt 0.430664 0.867188
vt 0.0673828 1
f 26/60/18 25/61/18 23/62/18

usemtl _auto_55
v 1.55595 -1.64795 26.649
vt 61.258 1049.17
vn 8.74243e-008 -1 1.62918e-007
vt -65.2382 1041.73
vt 61.258 1041.73
f 27/63/19 25/64/19 26/65/19

vt -65.2382 1049.17
f 25/64/19 27/63/19 14/66/19

usemtl _auto_56
vt 0.457031 1
vn 8.74269e-008 -1 1.62939e-007
vt 0.430664 0.867188
vt 0.09375 0.867188
f 12/67/20 14/68/20 27/69/20

vt 0.457031 1
vn 8.74222e-008 -1 1.62899e-007
vt 0.09375 0.867187
vt 0.0673828 1
f 12/70/21 27/71/21 18/72/21

vt 0.430664 0.867199
vn 1 8.74201e-008 -1.42416e-014
vt 0.0673833 1.00001
vt 0.0937505 0.867199
f 22/73/22 18/74/22 27/75/22

vt 0.404297 1.00001
f 18/74/22 22/73/22 20/76/22

usemtl _auto_55
vt -64.8799 1049.17
vn 1 8.74201e-008 -1.42461e-014
vt 61.6162 1041.73
vt 61.6162 1049.17
f 27/77/23 23/78/23 22/79/23

vt -64.8799 1041.73
f 23/78/23 27/77/23 26/80/23

vt 64.8799 1049.17
vn -1 -8.74219e-008 1.42398e-014
vt -61.6162 1041.73
vt 64.8799 1041.73
f 14/81/24 24/82/24 25/83/24

vt -61.6162 1049.17
f 24/82/24 14/81/24 13/84/24

g Mesh3 Model

usemtl _auto_56
v -0.901048 -0.891949 22.68
vt 0.457031 1
vn 6.18176e-008 -0.707107 -0.707107
v -0.901048 -0.702949 22.491
vt 0.430664 0.867188
v 0.799952 -0.702949 22.491
vt 0.09375 0.867188
f 28/85/25 29/86/25 30/87/25

v -0.901048 0.998051 22.68
vt 0.780275 0.183206
vn -1 -8.74119e-008 -3.26396e-011
vt 0.772875 -0.0523409
vt 0.780275 -0.0785128
f 31/88/26 29/89/26 28/90/26

v -0.901048 0.998051 22.491
vt 0.772875 0.183206
f 29/89/26 31/88/26 32/91/26

vt 0.457031 1
vn -8.74214e-008 1 -1.62923e-007
v 0.799952 0.998051 22.491
vt 0.0799801 0.867188
vt 0.430664 0.867188
f 31/92/27 33/93/27 32/94/27

v 0.98895 0.998051 22.68
vt 0.0673828 1
f 33/93/27 31/92/27 34/95/27

vt -5.2011 -27.0634
vn 0.70711 -5.33879e-008 -0.707103
vt -5.21156 -26.8278
vt -5.21156 -27.0634
f 34/96/28 30/97/28 33/98/28

v 0.98895 -0.891949 22.68
vt -5.2011 -26.8017
f 30/97/28 34/96/28 35/99/28

vt 0.457031 1
vn 6.18169e-008 -0.707107 -0.707107
vt 0.09375 0.867187
vt 0.0673828 1
f 28/100/29 30/101/29 35/102/29

g Mesh4 Model

v 0.98895 0.998047 0
vt 1.94286 -27.0634
vn 1 8.74208e-008 3.91916e-012
v 0.98895 -0.891953 0.567004
vt 2.02138 -26.8017
v 0.98895 -0.891953 3.07921e-007
vt 1.94286 -26.8017
f 36/103/30 37/104/30 38/105/30

v 0.98895 1.18705 0.567004
vt 2.02138 -27.0896
f 37/104/30 36/103/30 39/106/30

vt 0.0410156 0.867187
vn -8.29372e-008 0.948684 -0.316226
v -1.09005 1.18705 0.567004
vt 0.457031 1
vt 0.0673828 1
f 36/107/31 40/108/31 39/109/31

v -1.09005 0.998047 0
vt 0.430664 0.867187
f 40/108/31 36/107/31 41/110/31

vt -0.107646 0.183206
vn -1 -8.74291e-008 -1.23899e-011
v -1.09005 -0.891953 0.567004
vt -0.0854475 -0.0785133
vt -0.0854475 0.209378
f 41/111/32 42/112/32 40/113/32

v -1.09005 -0.891953 3.07921e-007
vt -0.107646 -0.0785133
f 42/112/32 41/111/32 43/114/32

vt 0.457031 1
vn 8.74242e-008 -1 1.62921e-007
vt 0.430664 0.867187
vt 0.09375 0.867187
f 42/115/33 43/116/33 38/117/33

vt 0.457031 1
vn 8.74223e-008 -1 1.62914e-007
vt 0.09375 0.867187
vt 0.0673828 1
f 42/118/34 38/119/34 37/120/34

v -0.523051 -0.324952 2.646
vt 0.418945 0.169922
vn 8.43419e-008 -0.964764 0.263118
vt 0.530273 0.0195313
vt 0.140625 0.0195313
f 44/121/35 42/122/35 37/123/35

vt -2.8928 1.22901
vn -0.964764 -4.14848e-008 0.263116
vt -2.93416 1.02054
vt -2.87729 1.02054
f 44/124/36 40/125/36 42/126/36

v -0.523052 0.620048 2.646
vt -2.91865 1.22901
f 40/125/36 44/124/36 45/127/36

usemtl _auto_55
v -0.523051 -0.324952 3.02399
vt 12.7934 119.055
vn -1 -8.74344e-008 1.42443e-014
vt -24.4113 104.173
vt 12.7934 104.173
f 46/128/37 45/129/37 44/130/37

v -0.523052 0.620048 3.02399
vt -24.4113 119.055
f 45/129/37 46/128/37 47/131/37

usemtl _auto_56
v -0.523051 -0.324949 22.68
vt 0.780275 2.9451e-006
vn -1 -8.74344e-008 1.42449e-014
vt 0.0107435 0.130862
vt 0.0107435 2.50164e-006
f 48/132/38 47/133/38 46/134/38

v -0.523052 0.620051 22.68
vt 0.780275 0.130863
f 47/133/38 48/132/38 49/135/38

vt 0.780273 -6.18482e-011
vn -8.74185e-008 1 -1.62921e-007
v 0.421947 0.620048 3.02399
vt 0.0107422 0.130859
vt 0.0107422 -6.18873e-011
f 49/136/39 50/137/39 47/138/39

v 0.421947 0.620051 22.68
vt 0.780273 0.130859
f 50/137/39 49/136/39 51/139/39

v 0.421947 -0.324949 22.68
vt 0.780275 0.130859
vn 1 8.74136e-008 -1.42415e-014
vt 0.0107435 8.29248e-011
vt 0.780275 -4.4337e-007
f 52/140/40 50/141/40 51/142/40

v 0.421947 -0.324952 3.02399
vt 0.0107435 0.13086
f 50/141/40 52/140/40 53/143/40

vt 0.780275 -1.18633e-006
vn 8.74201e-008 -1 1.62922e-007
vt 0.0107434 0.130858
vt 0.0107434 -1.18633e-006
f 52/144/41 46/145/41 53/146/41

vt 0.780275 0.130858
f 46/145/41 52/144/41 48/147/41

usemtl _auto_55
vt -20.5926 104.173
vn 8.74236e-008 -1 1.62901e-007
vt 16.6121 119.055
vt -20.5926 119.055
f 44/148/42 53/149/42 46/150/42

v 0.421947 -0.324952 2.646
vt 16.6121 104.173
f 53/149/42 44/148/42 54/151/42

usemtl _auto_56
vt 0.418935 0.16991
vn 8.91051e-008 -0.964764 0.263118
v 0.940974 -0.843976 0.742916
vt 0.150035 0.0322448
vt 0.251943 0.16991
f 44/152/43 55/153/43 54/154/43

vt 0.140615 0.0195197
f 55/153/43 44/152/43 37/155/43

vt 0.53028 0.0195566
vn 0.964763 1.47953e-007 0.26312
vt 0.150051 0.0322817
vt 0.140631 0.0195566
f 39/156/44 55/157/44 37/158/44

vt 0.251959 0.169947
f 55/157/44 39/156/44 54/159/44

v 0.421947 0.620048 2.646
vt 0.429072 0.169947
f 54/159/44 39/156/44 56/160/44

vt 0.140625 0.0195313
vn -8.43424e-008 0.964764 0.263118
vt 0.429066 0.169922
vt 0.251953 0.169922
f 39/161/45 45/162/45 56/163/45

vt 0.530273 0.0195313
f 45/162/45 39/161/45 40/164/45

usemtl _auto_55
vt 20.5926 119.055
vn -8.74165e-008 1 -1.6292e-007
vt -16.6121 104.173
vt 20.5926 104.173
f 47/165/46 56/166/46 45/167/46

vt -16.6121 119.055
f 56/166/46 47/165/46 50/168/46

vt -12.7934 119.055
vn 1 8.74136e-008 -1.42403e-014
vt 24.4113 104.173
vt 24.4113 119.055
f 53/169/47 56/170/47 50/171/47

vt -12.7934 104.173
f 56/170/47 53/169/47 54/172/47

g Mesh5 Model

usemtl _auto_56
v -4.11405 0.809049 16.254
vt 1 1
vn -8.74229e-008 1 -1.62922e-007
v 4.01294 0.80905 13.608
vt 1.59311e-012 2.74447e-013
v -4.11405 0.809049 13.608
vt 1 2.74447e-013
f 57/173/48 58/174/48 59/175/48

v 4.01294 0.80905 16.254
vt 1.58851e-012 1
f 58/174/48 57/173/48 60/176/48

g Mesh6 Model

v -2.03504 4.02205 17.766
vt 1 -4.52083e-013
vn 0.707107 0.707106 -1.15202e-007
v 3.82395 -1.83695 20.412
vt -1.85915e-011 1
v 3.82395 -1.83695 17.766
vt -1.85597e-011 -5.18696e-013
f 61/177/49 62/178/49 63/179/49

v -2.03504 4.02205 20.412
vt 1 1
f 62/178/49 61/177/49 64/180/49

