# Alias OBJ Model File
# Exported from SketchUp, (c) 2000-2006 Google, Inc.
# File units = meters

mtllib merlinroof.mtl

g Mesh1 Group_1_1 Model

usemtl _auto_58
v 7.85924e-006 5.06003 14.3756
vt 1.53359 0.914587
vn -0.314889 0.780376 0.540239
v -3.00765e-006 9.20005 8.39537
vt 1.39442 0.570096
v -6.55503 6.55503 8.39537
vt 2.02942 0.570096
f 1/1/1 2/2/1 3/3/1

v 3.56502 3.56502 14.3756
vt 0.855946 0.930088
vn 0.325964 0.777296 0.538106
vt 1.34237 0.561477
vt 1.1101 0.999285
f 4/4/2 2/5/2 1/6/2

vt 0.855946 0.930088
vn 0.313634 0.777266 0.545428
v 6.55503 6.55503 8.39537
vt 0.707365 0.561477
vt 1.34237 0.561477
f 4/7/3 5/8/3 2/9/3

vt 1.635 0.563893
vn 0.771641 0.323591 0.547594
vt 1.39471 1.00621
v 5.06002 5.33818e-006 14.3756
vt 1.13917 0.933484
f 5/10/4 4/11/4 6/12/4

vt 1.635 0.563893
vn 0.780376 0.314889 0.540239
vt 1.13917 0.933484
v 9.20005 3.98196e-006 8.39537
vt 1 0.563893
f 5/13/5 6/14/5 7/15/5

vt 1.635 0.563893
vn 0.71698 0.289308 0.634225
vt 1 0.563893
v 14.4901 -1.69478e-006 2.41511
vt 1 9.79217e-014
f 5/16/6 7/17/6 8/18/6

v 10.2351 10.2351 2.4151
vt 1.79052 0.0201136
vn 0.719482 0.29911 0.626801
vt 1.635 0.563893
vt 1 1.0858e-013
f 9/19/7 5/20/7 8/21/7

vt 0.707365 0.561477
vn 0.292066 0.723814 0.625133
vt 0.700645 0.00290772
vt 1.34237 0.561477
f 5/22/8 9/23/8 2/24/8

vt 1.34237 0.561477
vn 0.297306 0.715141 0.6326
vt 0.700645 0.00290772
v -6.98218e-007 14.4901 2.4151
vt 1.49311 0.0108834
f 2/25/9 9/26/9 10/27/9

vt 2.02942 0.570096
vn -0.289308 0.716979 0.634225
vt 1.39442 0.570096
vt 1.39442 0.00620176
f 3/28/10 2/29/10 10/30/10

vt 2.02942 0.570096
vn -0.299111 0.719482 0.6268
vt 1.39442 0.00620176
v -10.235 10.235 2.4151
vt 2.18494 0.0263168
f 3/31/11 10/32/11 11/33/11

vt 3.1157 0.0170182
vn -0.723815 0.292066 0.625131
v -9.20004 3.59662e-007 8.39537
vt 3.7507 0.580911
vt 3.1157 0.580911
f 11/34/12 12/35/12 3/36/12

vt 3.182 0.00388095
vn -0.715141 0.297307 0.6326
v -14.4901 1.69478e-006 2.41511
vt 3.97292 0.0196926
vt 3.817 0.567774
f 11/37/13 13/38/13 12/39/13

vt 3.1157 0.580911
vn -0.777266 0.313633 0.545428
vt 3.7507 0.580911
v -3.56501 3.56501 14.3756
vt 3.26429 0.957984
f 3/40/14 12/41/14 14/42/14

vt 3.7507 0.580911
vn -0.777296 0.325964 0.538106
v -4.913 0.350576 14.3756
vt 3.49606 1.01837
vt 3.26429 0.957984
f 12/43/15 15/44/15 14/45/15

v -5.06002 -1.44093e-006 14.3756
vt 3.52134 1.02495
f 15/44/15 12/43/15 16/46/15

vt 1.78056 0.993866
vn -0.323593 0.771639 0.547595
vt 1.53359 0.914587
vt 2.02942 0.570096
f 14/47/16 1/48/16 3/49/16

g Mesh2 Group_1_2 Model

v -7.85924e-006 -5.06003 14.3756
vn 0.314889 -0.780376 0.540239
v 3.00765e-006 -9.20005 8.39537
v 6.55503 -6.55503 8.39537
f 17/1/17 18/2/17 19/3/17

v -3.56502 -3.56502 14.3756
vn -0.325964 -0.777296 0.538106
f 20/4/18 18/5/18 17/6/18

vn -0.313634 -0.777266 0.545428
v -6.55503 -6.55503 8.39537
f 20/7/19 21/8/19 18/9/19

vn -0.771641 -0.323591 0.547594
v -5.06002 -5.33818e-006 14.3756
f 21/10/20 20/11/20 22/12/20

vn -0.780376 -0.314889 0.540239
v -9.20005 -3.98196e-006 8.39537
f 21/13/21 22/14/21 23/15/21

vn -0.71698 -0.289308 0.634225
v -14.4901 1.69478e-006 2.41511
f 21/16/22 23/17/22 24/18/22

v -10.2351 -10.2351 2.4151
vn -0.719482 -0.29911 0.626801
f 25/19/23 21/20/23 24/21/23

vn -0.292066 -0.723814 0.625133
f 21/22/24 25/23/24 18/24/24

vn -0.297306 -0.715141 0.6326
v 6.98218e-007 -14.4901 2.4151
f 18/25/25 25/26/25 26/27/25

vn 0.289308 -0.716979 0.634225
f 19/28/26 18/29/26 26/30/26

vn 0.299111 -0.719482 0.6268
v 10.235 -10.235 2.4151
f 19/31/27 26/32/27 27/33/27

vn 0.723815 -0.292066 0.625131
v 9.20004 -3.59662e-007 8.39537
f 27/34/28 28/35/28 19/36/28

vn 0.715141 -0.297307 0.6326
f 27/37/29 8/38/29 28/39/29

vn 0.777266 -0.313633 0.545428
v 3.56501 -3.56501 14.3756
f 19/40/30 28/41/30 29/42/30

vn 0.777296 -0.325964 0.538106
v 4.913 -0.350576 14.3756
f 28/43/31 30/44/31 29/45/31

v 5.06002 1.44093e-006 14.3756
f 30/44/31 28/43/31 31/46/31

vn 0.323593 -0.771639 0.547595
f 29/47/32 17/48/32 19/49/32

g Mesh3 Model

usemtl _auto_31
v 0 -17.0201 -7.21911e-016
vt 16 -0.0683594
vn -0.378975 -0.925407 1.50768e-007
v -12.0751 -12.0751 2.41511
vt 14 1.02344
v -12.0751 -12.0751 -8.05647e-007
vt 14 -0.0683594
f 32/50/33 33/51/33 34/52/33

v 0 -17.0201 2.41511
vt 16 1.02344
f 33/51/33 32/50/33 35/53/33

vt 1.25455e-014 -0.0683594
vn 0.378976 -0.925407 1.50768e-007
v 12.0751 -12.0751 2.41511
vt 2 1.02344
vt 1.83187e-014 1.02344
f 32/54/34 36/55/34 35/56/34

v 12.0751 -12.0751 -8.05648e-007
vt 2 -0.0683594
f 36/55/34 32/54/34 37/57/34

vt 2181.45 1155.69
vn 1.36143e-014 -1.62921e-007 -1
v 3.85504e-006 -14.7201 -3.74719e-007
vt 2162.61 1244.26
vt 1675.95 1247.2
f 32/58/35 38/59/35 37/60/35

v -10.3501 -10.3501 -1.08669e-006
vt 2525.37 1497.33
f 32/58/35 39/61/35 38/59/35

vt 2605.93 1445.03
f 34/62/35 39/61/35 32/58/35

v -14.7201 -1.85551e-006 -2.77293e-006
vt 2608.87 1931.69
f 34/62/35 40/63/35 39/61/35

v -17.0201 -3.93472e-007 -2.77293e-006
vt 2697.44 1950.53
f 40/63/35 34/62/35 41/64/35

vt 14 1.02344
vn -0.925407 -0.378976 6.17431e-008
vt 12 -0.0683594
vt 14 -0.0683594
f 33/65/36 41/66/36 34/67/36

v -17.0201 0 2.41511
vt 12 1.02344
f 41/66/36 33/65/36 42/68/36

vt 14 1.02344
vn -1.6686e-014 1.62921e-007 1
vt 12 0.996094
vt 12 1.02344
f 33/69/37 13/70/37 42/71/37

v -10.235 -10.2351 2.41511
vt 14 0.996094
vn -2.06125e-014 1.62921e-007 1
vt 12 0.996094
vt 14 1.02344
f 43/72/38 13/73/38 33/74/38

vt 16 1.02344
vn -1.73257e-014 1.62921e-007 1
vt 14 0.996094
vt 14 1.02344
f 35/75/39 43/76/39 33/77/39

vt 16 1.02344
vn -1.07476e-014 1.62921e-007 1
v -1.69478e-006 -14.4901 2.41511
vt 16 0.996094
vt 14 0.996094
f 35/78/40 44/79/40 43/80/40

vt 2 1.02344
vn -1.52676e-014 1.62921e-007 1
vt 1.44102e-014 0.996094
vt 1.67391e-014 1.02344
f 36/81/41 44/82/41 35/83/41

vt 2 1.02344
vn -1.40768e-014 1.62921e-007 1
v 10.2351 -10.2351 2.41511
vt 2 0.996094
vt 7.10543e-015 0.996094
f 36/84/42 45/85/42 44/86/42

v 17.0201 2.393e-006 2.41511
vt 4 1.02344
vn -1.21431e-014 1.62921e-007 1
vt 2 0.996094
vt 2 1.02344
f 46/87/43 45/88/43 36/89/43

vt 4 1.02344
vn -1.67006e-014 1.62921e-007 1
vt 4 0.996094
vt 2 0.996094
f 46/90/44 8/91/44 45/92/44

usemtl _auto_59
vt 4 1.02344
vn -1.67006e-014 1.62921e-007 1
vt 6 0.996094
vt 4 0.996094
f 46/93/45 9/94/45 8/95/45

vt 4 1.02344
vn -2.00288e-014 1.62921e-007 1
v 12.0751 12.0751 2.4151
vt 6 1.02344
vt 6 0.996094
f 46/96/46 47/97/46 9/98/46

vt 4 1.02344
vn 0.925407 0.378976 -6.17431e-008
v 12.0751 12.0751 -4.74021e-006
vt 6 -0.0683594
vt 6 1.02344
f 46/99/47 48/100/47 47/101/47

v 17.0201 1.99952e-006 -2.77293e-006
vt 4 -0.0683594
f 48/100/47 46/99/47 49/102/47

usemtl _auto_31
vt 2 1.02344
vn 0.925406 -0.378976 6.17432e-008
vt 4 -0.0683594
vt 4 1.02344
f 36/103/48 49/104/48 46/105/48

vt 2 -0.0683594
f 49/104/48 36/103/48 37/106/48

v 14.7201 3.46156e-006 -2.77293e-006
vt 1475.18 1690.52
vt 1386.61 1671.68
f 37/60/35 50/107/35 49/108/35

v 10.3501 -10.3501 -1.08669e-006
vt 1728.25 1327.75
f 37/60/35 51/109/35 50/107/35

f 37/60/35 38/59/35 51/109/35

usemtl _auto_59
vn 1.36873e-014 -1.62921e-007 -1
vt 1478.11 2177.18
f 50/107/49 48/110/49 49/108/49

v 10.3501 10.3501 -4.45917e-006
vt 1558.67 2124.88
f 52/111/49 48/110/49 50/107/49

v 7.39376e-006 14.7201 -5.17114e-006
vt 1921.43 2377.95
f 53/112/49 48/110/49 52/111/49

v 0 17.0201 -5.54586e-006
vt 1902.59 2466.52
f 53/112/49 54/113/49 48/110/49

v -10.3501 10.35 -4.45917e-006
vt 2355.8 2294.46
f 55/114/49 54/113/49 53/112/49

v -12.0751 12.0751 -4.74021e-006
vt 2408.09 2375.01
f 55/114/49 56/115/49 54/113/49

f 40/63/49 56/115/49 55/114/49

f 56/115/49 40/63/49 41/64/49

vt 12 1.02344
vn -0.925406 0.378976 -6.17432e-008
vt 10 -0.0683594
vt 12 -0.0683594
f 42/116/50 56/117/50 41/118/50

v -12.0751 12.0751 2.4151
vt 10 1.02344
f 56/117/50 42/116/50 57/119/50

vt 10 0.996094
vn -1.27686e-014 1.62921e-007 1
vt 10 1.02344
vt 12 1.02344
f 11/120/51 57/121/51 42/122/51

vt 8 0.996094
vn -1.24391e-014 1.62921e-007 1
vt 10 1.02344
vt 10 0.996094
f 10/123/52 57/124/52 11/125/52

v 0 17.0201 2.4151
vt 8 1.02344
vn -1.36586e-014 1.62921e-007 1
vt 10 1.02344
vt 8 0.996094
f 58/126/53 57/127/53 10/128/53

vt 8 1.02344
vn -0.378976 0.925406 -1.50768e-007
vt 10 -0.0683594
vt 10 1.02344
f 58/129/54 56/130/54 57/131/54

vt 8 -0.0683594
f 56/130/54 58/129/54 54/132/54

vt 8 1.02344
vn 0.378975 0.925407 -1.50768e-007
vt 6 -0.0683594
vt 8 -0.0683594
f 58/133/55 48/134/55 54/135/55

vt 6 1.02344
f 48/134/55 58/133/55 47/136/55

vt 6 1.02344
vn -1.73279e-014 1.62921e-007 1
vt 8 1.02344
vt 6 0.996094
f 47/137/56 58/138/56 9/139/56

vt 6 0.996094
vn -1.02539e-014 1.62921e-007 1
vt 8 1.02344
vt 8 0.996094
f 9/140/57 58/141/57 10/142/57

vt 10 0.996094
vn -1.6686e-014 1.62921e-007 1
vt 12 1.02344
vt 12 0.996094
f 11/143/58 42/144/58 13/145/58

g Mesh4 Model

usemtl _auto_52
v 5.98003 3.45002 14.3756
vt 0.5 0.379883
vn 1 -9.82475e-007 1.80153e-013
v 5.98003 -3.45002 15.5257
vt 1 -0.0195312
v 5.98003 -3.45002 14.3756
vt 1 0.379883
f 59/146/59 60/147/59 61/148/59

v 5.98003 3.45002 15.5257
vt 0.5 -0.0195312
f 60/147/59 59/146/59 62/149/59

vt 0.5 0.379883
vn 0.499723 0.866185 -1.4112e-007
v 6.77911e-006 6.90004 15.5257
vt 1.19904e-014 -0.0195312
vt 0.5 -0.0195312
f 59/150/60 63/151/60 62/152/60

v 6.77911e-006 6.90004 14.3756
vt 1.13243e-014 0.379883
f 63/151/60 59/150/60 64/153/60

vt 1840 1629.26
vn 1.42005e-014 -1.62921e-007 -1
vt 1985.5 2076.81
vt 1783.48 1894.97
f 61/154/61 64/155/61 59/156/61

v 4.46968e-006 -6.90003 14.3756
vt 2098.55 1545.4
f 65/157/61 64/155/61 61/154/61

v -3.56502 -3.56501 14.3756
vt 2208.51 1703.03
f 66/158/61 64/155/61 65/157/61

vt 2228.34 1864.85
f 15/159/61 64/155/61 66/158/61

v -5.98003 3.45002 14.3756
vt 2244.04 1992.95
f 64/155/61 15/159/61 67/160/61

vt -2890.86 1169.49
vn 1.14316e-014 1.62921e-007 1
vt -2932.87 1291.52
vt -2896.65 1155.69
f 15/161/62 67/162/62 16/163/62

vt 2236.87 1852.56
f 15/159/61 16/164/61 67/160/61

vt -2208.51 1703.03
vn 1.30253e-015 1.62921e-007 1
vt -2228.34 1864.85
vt -2236.87 1852.56
f 66/165/63 15/166/63 16/167/63

f 16/164/61 15/159/61 66/158/61

v -5.98003 -3.45001 14.3756
vt 2300.56 1727.24
f 66/158/61 68/168/61 16/164/61

f 68/168/61 66/158/61 65/157/61

vt 1.5 0.379883
vn -0.499722 -0.866186 1.4112e-007
v -5.98003 -3.45001 15.5257
vt 2 -0.0195312
vt 2 0.379883
f 65/169/64 69/170/64 68/171/64

v 4.46968e-006 -6.90003 15.5257
vt 1.5 -0.0195312
f 69/170/64 65/169/64 70/172/64

vt 1.5 0.379883
vn 0.499723 -0.866185 1.4112e-007
vt 1 -0.0195312
vt 1.5 -0.0195312
f 65/173/65 60/174/65 70/175/65

vt 1 0.379883
f 60/174/65 65/173/65 61/176/65

vt 2 -0.0195312
vn -1 9.82475e-007 -1.80153e-013
vt 2.5 0.379883
vt 2 0.379883
f 69/177/66 67/178/66 68/179/66

v -5.98003 3.45002 15.5257
vt 2.5 -0.0195312
f 67/178/66 69/177/66 71/180/66

vt 3 -0.0195312
vn -0.499722 0.866186 -1.4112e-007
vt 2.5 0.379883
vt 2.5 -0.0195312
f 63/181/67 67/182/67 71/183/67

vt 3 0.379883
f 67/182/67 63/181/67 64/184/67

f 16/164/61 68/168/61 67/160/61

