# Alias OBJ Model File
# Exported from SketchUp, (c) 2000-2006 Google, Inc.
# File units = meters

mtllib smallrock.mtl

g Mesh1 skpA2DB1 Model

usemtl _auto_
v 0 -2.0943 5.50732e-016
vt -1.11022e-016 2
vn -0.697438 -0.629207 -0.343045
v -1.43063 -1.50465 1.82706
vt 0.64886 2.36057
v -1.97933 0.0996663 -2.00626e-017
vt 1 2
f 1/1/1 2/2/1 3/3/1

v 0 -2.0943 2.33
vt 0.00841987 0.499813
vn -0.381063 -0.924549 2.53648e-016
vt 0.586456 0.357707
vt 0 -3.46945e-018
f 4/4/2 2/5/2 1/6/2

usemtl _auto_4
vt 1 0.648859
vn -0.476247 -0.657335 0.584038
v -1.43841 -0.810334 2.60217
vt 5.55112e-017 1
vt 0.215658 -5.55112e-017
f 4/7/3 5/8/3 2/9/3

usemtl _auto_
v 0.36731 -1.32033 4.17
vt -0.136491 -1.05992
vn -0.561505 -0.716712 0.413564
vt 0.682318 -1.44592
vt 0.0265054 -1.51293
f 6/10/4 5/11/4 4/12/4

usemtl _auto_6
v -0.0235837 0.0996663 4.29961
vt 1.66533e-016 1
vn -0.674109 -0.249038 0.695383
vt 0.247579 -5.55112e-017
vt 1 0.923642
f 7/13/5 5/14/5 6/15/5

usemtl _auto_
vt -0.0141865 1.52684
vn -0.768156 2.19316e-016 0.640263
vt 0.460032 1.95914
v -1.43841 1.00967 2.60217
vt 0.63557 1.5527
f 5/16/6 7/17/6 8/18/6

usemtl _auto_1
v 0.36731 1.51967 4.17
vt 2.22045e-016 0.923642
vn -0.674109 0.249037 0.695383
vt 0.752421 5.55112e-017
vt 1 1
f 9/19/7 8/20/7 7/21/7

usemtl _auto_
vt -0.136491 -1.05992
vn -0.561504 0.716714 0.413562
v 0 2.29363 2.33
vt 0.0265054 -1.51293
vt 0.682318 -1.44592
f 9/22/8 10/23/8 8/24/8

v 1.70731 1.51967 3.91
vt 1.09973 0.84352
vn 0.0726346 0.924439 0.374348
vt 2.05168 0.481961
vt 1.92968 0.964092
f 11/25/9 10/26/9 9/27/9

vt 1.11246 1.80589
vn 0.391965 0.919586 0.0269092
v 1.4179 1.70398 1.82706
vt 1.18691 1.33914
vt 2.07475 1.49127
f 11/28/10 12/29/10 10/30/10

vt 1.17638 1.35014
vn 0.880282 0.467496 -0.0809423
vt 1.17407 1.78446
v 2.35731 0.0996663 2.77755
vt 0.606863 1.57135
f 12/31/11 11/32/11 13/33/11

vt -0.125221 3.55881
vn 0.911567 0.0990267 0.399047
vt 0.329847 3.78732
v 1.68556 0.0996663 4.31207
vt 0.0337813 3.97202
f 13/34/12 11/35/12 14/36/12

vt 1.1566 0.816804
vn 0.183657 0.265198 0.946541
vt 1.2943 0.929155
vt 1.05778 0.990545
f 11/37/13 9/38/13 14/39/13

vt 1.3263 -3.20867
vn -0.0072585 0.0928756 0.995651
vt 1.38884 -3.04484
vt 1.17585 -3.0291
f 9/40/14 7/41/14 14/42/14

vn -0.0072585 -0.0928758 0.995651
vt 1.3263 -3.20867
vt 1.17585 -3.0291
f 7/41/15 6/43/15 14/44/15

vt 1.05778 0.990545
vn 0.183657 -0.265198 0.946541
v 1.70731 -1.32033 3.91
vt 1.1566 0.816804
f 14/45/16 6/38/16 15/46/16

vt 1.09973 0.84352
vn 0.0726352 -0.924438 0.374351
vt 1.92968 0.964092
vt 2.05168 0.481961
f 15/47/17 6/48/17 4/49/17

vt 1.11246 1.80589
vn 0.391966 -0.919586 0.0269121
v 1.4179 -1.50465 1.82706
vt 1.18691 1.33914
f 15/50/18 4/30/18 16/51/18

vt 1.27911 0.344
vn 0.383982 -0.923341 2.77736e-016
vt 2.03749 0.500518
vt 2 -6.93889e-017
f 16/52/19 4/53/19 1/54/19

vt 1.3475 -1
vn 0.729111 -0.567383 -0.382719
v 1.70731 0.0996663 -2.00626e-017
vt 1 -1
vt 1.17398 -0.655807
f 1/55/20 17/56/20 16/57/20

vt 0.771545 -0.000156774
vn 0.892825 -0.399008 -0.208938
vt 0.723922 0.560047
vt 1.2609 0.355636
f 17/58/21 13/59/21 16/60/21

vt 0.771545 -0.000156774
vn 0.892825 0.399009 -0.208938
vt 1.2609 0.355636
vt 0.723922 0.560047
f 17/61/22 12/62/22 13/63/22

vt 1 -1
vn 0.729111 0.567384 -0.382718
v 0 2.29363 -5.90856e-016
vt 1.3475 -1
vt 1.17398 -0.655807
f 17/64/23 18/65/23 12/66/23

vt 1.27911 0.344
vn 0.383982 0.923341 -2.16248e-016
vt 2 1.38778e-017
vt 2.03749 0.500518
f 12/67/24 18/68/24 10/69/24

vt 1.11022e-016 -1.04083e-017
vn -0.381063 0.924549 -2.29457e-016
v -1.43063 1.70398 1.82706
vt 0.586456 0.357707
vt 0.00841987 0.499813
f 18/70/25 19/71/25 10/72/25

vn -0.697437 0.629208 -0.343044
vt 0.64886 2.36057
vt 0 2
f 3/3/26 19/73/26 18/74/26

usemtl _auto_5
vt 1 1.38778e-016
vn -0.974912 0.170573 0.143007
vt 0.409146 1
vt -2.22045e-016 0.702129
f 3/75/27 8/76/27 19/77/27

usemtl _auto_
vt 1.38778e-017 1
vn -0.97907 9.26732e-017 0.203522
vt -0.14831 1.5648
vt 0.337644 1.67359
f 3/78/28 5/79/28 8/80/28

usemtl _auto_3
vt 5.55112e-017 0
vn -0.974912 -0.170572 0.143007
vt 1 0.702129
vt 0.590854 1
f 3/81/29 2/82/29 5/83/29

usemtl _auto_2
vt 2.22045e-016 0.648859
vn -0.476247 0.657338 0.584034
vt 0.784342 -4.85723e-017
vt 1 1
f 10/84/30 19/85/30 8/86/30

usemtl _auto_
vn 0.880282 -0.467496 -0.0809408
vt 0.606863 1.57135
f 16/31/31 13/87/31 15/32/31

vt -0.125221 3.55881
vn 0.911567 -0.0990269 0.399047
vt 0.0337813 3.97202
vt 0.329847 3.78732
f 13/88/32 14/89/32 15/90/32

